<svg xmlns="http://www.w3.org/2000/svg" width="34.634" height="45.297" viewBox="0 0 34.634 45.297">
  <g id="_2-arrow-up" data-name="2-arrow-up" transform="translate(-607.2 -410.606)">
    <path id="Icon_awesome-long-arrow-alt-up" data-name="Icon awesome-long-arrow-alt-up" d="M8.347,15.8V46.333A1.213,1.213,0,0,0,9.56,47.547h5.662a1.213,1.213,0,0,0,1.213-1.213V15.8h4.657a2.427,2.427,0,0,0,1.716-4.143l-8.7-8.7a2.427,2.427,0,0,0-3.432,0l-8.7,8.7A2.427,2.427,0,0,0,3.69,15.8Z" transform="translate(618.31 408.356)" fill="#fff" opacity="0.15"/>
    <path id="Icon_awesome-long-arrow-alt-up-2" data-name="Icon awesome-long-arrow-alt-up" d="M5.351,10.076V27.7a.7.7,0,0,0,.7.7H9.321a.7.7,0,0,0,.7-.7V10.076H12.71A1.4,1.4,0,0,0,13.7,7.684L8.677,2.66a1.4,1.4,0,0,0-1.981,0L1.671,7.684a1.4,1.4,0,0,0,.991,2.392Z" transform="translate(605.941 427.498)" fill="#fff" opacity="0.15"/>
  </g>
</svg>
